<svg xmlns="http://www.w3.org/2000/svg" width="1600" height="1180" viewBox="0 0 1600 1180" role="img" aria-labelledby="title desc"><title id="title">Concord and Yjs browser comparison</title><desc id="desc">Four panels showing all eight workloads, including costs where Concord is higher. Lower values are better. Each panel has its own linear axis.</desc><rect width="1600" height="1180" fill="#f7f8fa"/><g font-family="Arial,sans-serif" fill="#17202a"><text x="40" y="52" font-size="30" font-weight="bold">Concord and Yjs: measured editor costs</text><text x="40" y="85" font-size="17">3 measured runs + 1 warmup · Chromium 153.0.8010.12 · Apple M2 · full</text><rect x="40" y="104" width="18" height="18" fill="#185abc"/><text x="66" y="120" font-size="17">Concord</text><rect x="180" y="104" width="18" height="18" fill="#a13d13"/><text x="206" y="120" font-size="17">Yjs</text><text x="300" y="120" font-size="17">Lower is better · common PostgreSQL transport · each panel uses a separate scale</text><text x="40" y="165" font-size="21" font-weight="bold">Edit to rendering opportunity (p95)</text><text x="40" y="212" font-size="14">Append typing</text><rect x="230" y="199" width="320" height="12" fill="#185abc"/><text x="564" y="210" font-size="13">34.40 ms</text><rect x="230" y="216" width="308.83720927653667" height="12" fill="#a13d13"/><text x="564" y="227" font-size="13">33.20 ms</text><text x="40" y="259" font-size="14">Middle edits</text><rect x="230" y="246" width="319.99999986138454" height="12" fill="#185abc"/><text x="564" y="257" font-size="13">34.40 ms</text><rect x="230" y="263" width="315.34883721010823" height="12" fill="#a13d13"/><text x="564" y="274" font-size="13">33.90 ms</text><text x="40" y="306" font-size="14">Large pastes</text><rect x="230" y="293" width="273.4883721010823" height="12" fill="#185abc"/><text x="564" y="304" font-size="13">29.40 ms</text><rect x="230" y="310" width="308.83720927653667" height="12" fill="#a13d13"/><text x="564" y="321" font-size="13">33.20 ms</text><text x="40" y="353" font-size="14">Deletes</text><rect x="230" y="340" width="319.06976735885235" height="12" fill="#185abc"/><text x="564" y="351" font-size="13">34.30 ms</text><rect x="230" y="357" width="316.2790697126404" height="12" fill="#a13d13"/><text x="564" y="368" font-size="13">34.00 ms</text><text x="40" y="400" font-size="14">Bold / italic</text><rect x="230" y="387" width="318.1395348563202" height="12" fill="#185abc"/><text x="564" y="398" font-size="13">34.20 ms</text><rect x="230" y="404" width="312.55813956389625" height="12" fill="#a13d13"/><text x="564" y="415" font-size="13">33.60 ms</text><text x="40" y="447" font-size="14">One contested document</text><rect x="230" y="434" width="302.32558134296505" height="12" fill="#185abc"/><text x="564" y="445" font-size="13">32.50 ms</text><rect x="230" y="451" width="314.4186045689606" height="12" fill="#a13d13"/><text x="564" y="462" font-size="13">33.80 ms</text><text x="40" y="494" font-size="14">Independent documents</text><rect x="230" y="481" width="306.9767441328569" height="12" fill="#185abc"/><text x="564" y="492" font-size="13">33.00 ms</text><rect x="230" y="498" width="309.76744177906886" height="12" fill="#a13d13"/><text x="564" y="509" font-size="13">33.30 ms</text><text x="40" y="541" font-size="14">Offline backlog</text><rect x="230" y="528" width="317.209302353788" height="12" fill="#185abc"/><text x="564" y="539" font-size="13">34.10 ms</text><rect x="230" y="545" width="317.209302353788" height="12" fill="#a13d13"/><text x="564" y="556" font-size="13">34.10 ms</text><text x="230" y="598" font-size="13">Axis: 0 to 34.40 ms; offline ACK omitted</text><text x="840" y="165" font-size="21" font-weight="bold">Edit to IndexedDB durability (p95)</text><text x="840" y="212" font-size="14">Append typing</text><rect x="1030" y="199" width="2.7364602244961507" height="12" fill="#185abc"/><text x="1364" y="210" font-size="13">19.80 ms</text><rect x="1030" y="216" width="2.5844346553244666" height="12" fill="#a13d13"/><text x="1364" y="227" font-size="13">18.70 ms</text><text x="840" y="259" font-size="14">Middle edits</text><rect x="1030" y="246" width="1.27148656860417" height="12" fill="#185abc"/><text x="1364" y="257" font-size="13">9.20 ms</text><rect x="1030" y="263" width="1" height="12" fill="#a13d13"/><text x="1364" y="274" font-size="13">1.80 ms</text><text x="840" y="306" font-size="14">Large pastes</text><rect x="1030" y="293" width="320" height="12" fill="#185abc"/><text x="1364" y="304" font-size="13">2315.40 ms</text><rect x="1030" y="310" width="1" height="12" fill="#a13d13"/><text x="1364" y="321" font-size="13">4.90 ms</text><text x="840" y="353" font-size="14">Deletes</text><rect x="1030" y="340" width="1.3129480867202963" height="12" fill="#185abc"/><text x="1364" y="351" font-size="13">9.50 ms</text><rect x="1030" y="357" width="1" height="12" fill="#a13d13"/><text x="1364" y="368" font-size="13">1.60 ms</text><text x="840" y="400" font-size="14">Bold / italic</text><rect x="1030" y="387" width="1.5064351719486904" height="12" fill="#185abc"/><text x="1364" y="398" font-size="13">10.90 ms</text><rect x="1030" y="404" width="1" height="12" fill="#a13d13"/><text x="1364" y="415" font-size="13">2.50 ms</text><text x="840" y="447" font-size="14">One contested document</text><rect x="1030" y="434" width="4.173792865564826" height="12" fill="#185abc"/><text x="1364" y="445" font-size="13">30.20 ms</text><rect x="1030" y="451" width="1" height="12" fill="#a13d13"/><text x="1364" y="462" font-size="13">1.20 ms</text><text x="840" y="494" font-size="14">Independent documents</text><rect x="1030" y="481" width="2.003973395520452" height="12" fill="#185abc"/><text x="1364" y="492" font-size="13">14.50 ms</text><rect x="1030" y="498" width="1" height="12" fill="#a13d13"/><text x="1364" y="509" font-size="13">1.30 ms</text><text x="840" y="541" font-size="14">Offline backlog</text><rect x="1030" y="528" width="4.077049321920921" height="12" fill="#185abc"/><text x="1364" y="539" font-size="13">29.50 ms</text><rect x="1030" y="545" width="1" height="12" fill="#a13d13"/><text x="1364" y="556" font-size="13">1.30 ms</text><text x="1030" y="598" font-size="13">Axis: 0 to 2315.40 ms; offline ACK omitted</text><text x="40" y="625" font-size="21" font-weight="bold">Edit to PostgreSQL acknowledgement (p95)</text><text x="40" y="672" font-size="14">Append typing</text><rect x="230" y="659" width="3.725867899908344" height="12" fill="#185abc"/><text x="564" y="670" font-size="13">27.20 ms</text><rect x="230" y="676" width="3.9039424682262185" height="12" fill="#a13d13"/><text x="564" y="687" font-size="13">28.50 ms</text><text x="40" y="719" font-size="14">Middle edits</text><rect x="230" y="706" width="2.410855698860075" height="12" fill="#185abc"/><text x="564" y="717" font-size="13">17.60 ms</text><rect x="230" y="723" width="1.3424082869116591" height="12" fill="#a13d13"/><text x="564" y="734" font-size="13">9.80 ms</text><text x="40" y="766" font-size="14">Large pastes</text><rect x="230" y="753" width="320" height="12" fill="#185abc"/><text x="564" y="764" font-size="13">2336.10 ms</text><rect x="230" y="770" width="1.438294593557028" height="12" fill="#a13d13"/><text x="564" y="781" font-size="13">10.50 ms</text><text x="40" y="813" font-size="14">Deletes</text><rect x="230" y="800" width="2.260177218446758" height="12" fill="#185abc"/><text x="564" y="811" font-size="13">16.50 ms</text><rect x="230" y="817" width="1.2465219802662906" height="12" fill="#a13d13"/><text x="564" y="828" font-size="13">9.10 ms</text><text x="40" y="860" font-size="14">Bold / italic</text><rect x="230" y="847" width="2.9039852750186137" height="12" fill="#185abc"/><text x="564" y="858" font-size="13">21.20 ms</text><rect x="230" y="864" width="1.2739180681708484" height="12" fill="#a13d13"/><text x="564" y="875" font-size="13">9.30 ms</text><text x="40" y="907" font-size="14">One contested document</text><rect x="230" y="894" width="8.520183211765103" height="12" fill="#185abc"/><text x="564" y="905" font-size="13">62.20 ms</text><rect x="230" y="911" width="1" height="12" fill="#a13d13"/><text x="564" y="922" font-size="13">5.90 ms</text><text x="40" y="954" font-size="14">Independent documents</text><rect x="230" y="941" width="5.150464448492508" height="12" fill="#185abc"/><text x="564" y="952" font-size="13">37.60 ms</text><rect x="230" y="958" width="1.9040280818110087" height="12" fill="#a13d13"/><text x="564" y="969" font-size="13">13.90 ms</text><text x="40" y="1001" font-size="14">Offline backlog</text><rect x="230" y="988" width="0" height="12" fill="#185abc"/><text x="564" y="999" font-size="13">—</text><rect x="230" y="1005" width="0" height="12" fill="#a13d13"/><text x="564" y="1016" font-size="13">—</text><text x="230" y="1058" font-size="13">Axis: 0 to 2336.10 ms; offline ACK omitted</text><text x="840" y="625" font-size="21" font-weight="bold">PostgreSQL retained update payloads (p50)</text><text x="840" y="672" font-size="14">Append typing</text><rect x="1030" y="659" width="35.31820378198178" height="12" fill="#185abc"/><text x="1364" y="670" font-size="13">106.2 KiB</text><rect x="1030" y="676" width="1.0489172584895625" height="12" fill="#a13d13"/><text x="1364" y="687" font-size="13">3.2 KiB</text><text x="840" y="719" font-size="14">Middle edits</text><rect x="1030" y="706" width="35.52610314569604" height="12" fill="#185abc"/><text x="1364" y="717" font-size="13">106.8 KiB</text><rect x="1030" y="723" width="1.1265546771266035" height="12" fill="#a13d13"/><text x="1364" y="734" font-size="13">3.4 KiB</text><text x="840" y="766" font-size="14">Large pastes</text><rect x="1030" y="753" width="320" height="12" fill="#185abc"/><text x="1364" y="764" font-size="13">962.0 KiB</text><rect x="1030" y="770" width="6.21001896269587" height="12" fill="#a13d13"/><text x="1364" y="781" font-size="13">18.7 KiB</text><text x="840" y="813" font-size="14">Deletes</text><rect x="1030" y="800" width="35.83795219126741" height="12" fill="#185abc"/><text x="1364" y="811" font-size="13">107.7 KiB</text><rect x="1030" y="817" width="1" height="12" fill="#a13d13"/><text x="1364" y="828" font-size="13">2.8 KiB</text><text x="840" y="860" font-size="14">Bold / italic</text><rect x="1030" y="847" width="41.44084004336651" height="12" fill="#185abc"/><text x="1364" y="858" font-size="13">124.6 KiB</text><rect x="1030" y="864" width="1.2912499543189875" height="12" fill="#a13d13"/><text x="1364" y="875" font-size="13">3.9 KiB</text><text x="840" y="907" font-size="14">One contested document</text><rect x="1030" y="894" width="55.1206181757643" height="12" fill="#185abc"/><text x="1364" y="905" font-size="13">165.7 KiB</text><rect x="1030" y="911" width="2.6978190869482246" height="12" fill="#a13d13"/><text x="1364" y="922" font-size="13">8.1 KiB</text><text x="840" y="954" font-size="14">Independent documents</text><rect x="1030" y="941" width="282.54563025585423" height="12" fill="#185abc"/><text x="1364" y="952" font-size="13">849.4 KiB</text><rect x="1030" y="958" width="8.3913380679165" height="12" fill="#a13d13"/><text x="1364" y="969" font-size="13">25.2 KiB</text><text x="840" y="1001" font-size="14">Offline backlog</text><rect x="1030" y="988" width="174.1222139658022" height="12" fill="#185abc"/><text x="1364" y="999" font-size="13">523.5 KiB</text><rect x="1030" y="1005" width="5.563257035891064" height="12" fill="#a13d13"/><text x="1364" y="1016" font-size="13">16.7 KiB</text><text x="1030" y="1058" font-size="13">Axis: 0 to 962.0 KiB; offline ACK omitted</text><text x="40" y="1115" font-size="15">Candidate d3da4c84de5c + working changes · Yjs 13.6.33 / y-prosemirror 1.3.7</text><text x="40" y="1143" font-size="15">Presentation opportunity is not physical paint. Timings are local and unthrottled; production gateway results are reported separately.</text></g></svg>